<?xml version="1.0" encoding="UTF-8"?>
<svg width="101px" height="101px" viewBox="0 0 101 101" version="1.1" xmlns="http://www.w3.org/2000/svg" xmlns:xlink="http://www.w3.org/1999/xlink">
    <!-- Generator: Sketch 42 (36781) - http://www.bohemiancoding.com/sketch -->
    <title>Group</title>
    <desc>Created with Sketch.</desc>
    <defs></defs>
    <g id="Page-1" stroke="none" stroke-width="1" fill="none" fill-rule="evenodd">
        <g id="Group" fill-rule="nonzero" fill="#FFFFFF">
            <path d="M27.9,21 L27.9,2.9 C27.9,1.3 26.6,0 25,0 C23.4,0 22.1,1.3 22.1,2.9 L22.1,21 C22.1,22.6 23.4,23.9 25,23.9 C26.6,23.9 27.9,22.6 27.9,21 Z" id="Shape"></path>
            <path d="M60.7,21 L60.7,2.9 C60.7,1.3 59.4,0 57.8,0 C56.2,0 54.9,1.3 54.9,2.9 L54.9,21 C54.9,22.6 56.2,23.9 57.8,23.9 C59.4,23.9 60.7,22.6 60.7,21 Z" id="Shape"></path>
            <path d="M12.6,40.1 C12.6,41.7 13.9,43 15.5,43 L26.2,43 C27.8,43 29.1,41.7 29.1,40.1 C29.1,38.5 27.8,37.2 26.2,37.2 L15.5,37.2 C13.9,37.2 12.6,38.5 12.6,40.1 Z" id="Shape"></path>
            <path d="M26.2,64.2 L15.5,64.2 C13.9,64.2 12.6,65.5 12.6,67.1 C12.6,68.7 13.9,70 15.5,70 L26.2,70 C27.8,70 29.1,68.7 29.1,67.1 C29.1,65.5 27.8,64.2 26.2,64.2 Z" id="Shape"></path>
            <path d="M26.2,50.7 L15.5,50.7 C13.9,50.7 12.6,52 12.6,53.6 C12.6,55.2 13.9,56.5 15.5,56.5 L26.2,56.5 C27.8,56.5 29.1,55.2 29.1,53.6 C29.1,52 27.8,50.7 26.2,50.7 Z" id="Shape"></path>
            <path d="M46.8,37.2 L36,37.2 C34.4,37.2 33.1,38.5 33.1,40.1 C33.1,41.7 34.4,43 36,43 L46.7,43 C48.3,43 49.6,41.7 49.6,40.1 C49.6,38.5 48.4,37.2 46.8,37.2 Z" id="Shape"></path>
            <path d="M46.8,64.2 L36,64.2 C34.4,64.2 33.1,65.5 33.1,67.1 C33.1,68.7 34.4,70 36,70 L46.7,70 C48.3,70 49.6,68.7 49.6,67.1 C49.6,65.5 48.4,64.2 46.8,64.2 Z" id="Shape"></path>
            <path d="M46.8,50.7 L36,50.7 C34.4,50.7 33.1,52 33.1,53.6 C33.1,55.2 34.4,56.5 36,56.5 L46.7,56.5 C48.3,56.5 49.6,55.2 49.6,53.6 C49.6,52 48.4,50.7 46.8,50.7 Z" id="Shape"></path>
            <path d="M53.7,40.1 C53.7,41.7 55,43 56.6,43 L67.3,43 C68.9,43 70.2,41.7 70.2,40.1 C70.2,38.5 68.9,37.2 67.3,37.2 L56.6,37.2 C55,37.2 53.7,38.5 53.7,40.1 Z" id="Shape"></path>
            <path d="M56.6,56.5 L67.3,56.5 C68.9,56.5 70.2,55.2 70.2,53.6 C70.2,52 68.9,50.7 67.3,50.7 L56.6,50.7 C55,50.7 53.7,52 53.7,53.6 C53.7,55.2 55,56.5 56.6,56.5 Z" id="Shape"></path>
            <path d="M53.9,78.6 L10.9,78.6 C8.1,78.6 5.8,76.3 5.8,73.5 L5.8,22.1 C5.8,19.3 8.1,17 10.9,17 L16.1,17 C17.7,17 19,15.7 19,14.1 C19,12.5 17.7,11.2 16.1,11.2 L10.9,11.2 C4.9,11.2 0,16.1 0,22.1 L0,73.5 C0,79.5 4.9,84.4 10.9,84.4 L54.1,84.4 C53.9,83.2 53.8,81.9 53.8,80.6 C53.8,79.9 53.8,79.2 53.9,78.6 Z" id="Shape"></path>
            <path d="M82.8,54.7 L82.8,22.1 C82.8,16.1 77.9,11.2 71.9,11.2 L66.7,11.2 C65.1,11.2 63.8,12.5 63.8,14.1 C63.8,15.7 65.1,17 66.7,17 L71.9,17 C74.7,17 77,19.3 77,22.1 L77,54.7 C78,54.6 78.9,54.5 79.9,54.5 C80.9,54.5 81.8,54.5 82.8,54.7 Z" id="Shape"></path>
            <path d="M51.8,14.1 C51.8,12.5 50.5,11.2 48.9,11.2 L33.9,11.2 C32.3,11.2 31,12.5 31,14.1 C31,15.7 32.3,17 33.9,17 L48.8,17 C50.5,17 51.8,15.7 51.8,14.1 Z" id="Shape"></path>
            <path d="M79.9,60.3 C68.7,60.3 59.6,69.4 59.6,80.6 C59.6,91.8 68.7,100.9 79.9,100.9 C91.1,100.9 100.2,91.8 100.2,80.6 C100.2,69.4 91.1,60.3 79.9,60.3 Z M79.9,95.1 C71.9,95.1 65.4,88.6 65.4,80.6 C65.4,72.6 71.9,66.1 79.9,66.1 C87.9,66.1 94.4,72.6 94.4,80.6 C94.4,88.6 87.9,95.1 79.9,95.1 Z" id="Shape"></path>
            <path d="M85.6,77.7 L82.8,77.7 L82.8,74.9 C82.8,73.3 81.5,72 79.9,72 C78.3,72 77,73.3 77,74.9 L77,77.7 L74.2,77.7 C72.6,77.7 71.3,79 71.3,80.6 C71.3,82.2 72.6,83.5 74.2,83.5 L77,83.5 L77,86.3 C77,87.9 78.3,89.2 79.9,89.2 C81.5,89.2 82.8,87.9 82.8,86.3 L82.8,83.5 L85.6,83.5 C87.2,83.5 88.5,82.2 88.5,80.6 C88.5,79 87.2,77.7 85.6,77.7 Z" id="Shape"></path>
        </g>
    </g>
</svg>