<?xml version="1.0" encoding="UTF-8"?>
<svg width="20px" height="20px" viewBox="0 0 20 20" version="1.1" xmlns="http://www.w3.org/2000/svg" xmlns:xlink="http://www.w3.org/1999/xlink">
    <!-- Generator: Sketch 42 (36781) - http://www.bohemiancoding.com/sketch -->
    <title>Group</title>
    <desc>Created with Sketch.</desc>
    <defs></defs>
    <g id="Page-1" stroke="none" stroke-width="1" fill="none" fill-rule="evenodd">
        <g id="Group" fill-rule="nonzero" fill="#FFFFFF">
            <path d="M17,20 L3,20 C1.343,20 0,18.657 0,17 L0,5 C0,3.343 1.343,2 3,2 L4,2 L4,1 C4,0.448 4.448,0 5,0 C5.552,0 6,0.448 6,1 L6,2 L14,2 L14,1 C14,0.448 14.448,0 15,0 C15.552,0 16,0.448 16,1 L16,2 L17,2 C18.657,2 20,3.343 20,5 L20,17 C20,18.657 18.657,20 17,20 Z M18,6 L2,6 L2,17 C2,17.552 2.448,18 3,18 L17,18 C17.552,18 18,17.552 18,17 L18,6 Z M11,15 L9,15 L9,13 L7,13 L7,11 L9,11 L9,9 L11,9 L11,11 L13,11 L13,13 L11,13 L11,15 Z" id="Shape"></path>
        </g>
    </g>
</svg>