<?xml version="1.0" encoding="UTF-8"?>
<svg width="2097px" height="1262px" viewBox="0 0 2097 1262" version="1.1" xmlns="http://www.w3.org/2000/svg" xmlns:xlink="http://www.w3.org/1999/xlink">
    <!-- Generator: Sketch 42 (36781) - http://www.bohemiancoding.com/sketch -->
    <title>invitationBG</title>
    <desc>Created with Sketch.</desc>
    <defs></defs>
    <g id="Invitation-Web-Playground" stroke="none" stroke-width="1" fill="none" fill-rule="evenodd" opacity="0.861186594">
        <g id="invitationBG" fill="#FFFFFF">
            <path d="M438.419706,321.059184 C443.113103,332.343781 445.70425,344.72247 445.70425,357.706354 C445.70425,410.448286 402.948466,453.20407 350.206533,453.20407 C297.464601,453.20407 254.708817,410.448286 254.708817,357.706354 C254.708817,344.677267 257.318037,332.257596 262.042457,320.941363 C245.132342,322.857423 228.154844,317.774951 215.857068,305.477175 C193.270641,282.890749 195.022869,244.518687 219.770778,219.770778 C244.518687,195.022869 282.890749,193.270641 305.477175,215.857068 C318.984864,229.364756 323.787657,248.518291 320.172808,267.027068 C329.616821,263.900784 339.714066,262.208638 350.206533,262.208638 C360.272455,262.208638 369.974636,263.766001 379.085269,266.652922 C375.607434,248.260487 380.436119,229.27376 393.852811,215.857068 C416.439238,193.270641 454.811299,195.022869 479.559209,219.770778 C504.307118,244.518687 506.059346,282.890749 483.472919,305.477175 C471.449587,317.500507 454.953073,322.626983 438.419706,321.059184 Z" id="Combined-Shape-Copy"></path>
            <path d="M787.419706,974.059184 C792.113103,985.343781 794.70425,997.72247 794.70425,1010.70635 C794.70425,1063.44829 751.948466,1106.20407 699.206533,1106.20407 C646.464601,1106.20407 603.708817,1063.44829 603.708817,1010.70635 C603.708817,997.677267 606.318037,985.257596 611.042457,973.941363 C594.132342,975.857423 577.154844,970.774951 564.857068,958.477175 C542.270641,935.890749 544.022869,897.518687 568.770778,872.770778 C593.518687,848.022869 631.890749,846.270641 654.477175,868.857068 C667.984864,882.364756 672.787657,901.518291 669.172808,920.027068 C678.616821,916.900784 688.714066,915.208638 699.206533,915.208638 C709.272455,915.208638 718.974636,916.766001 728.085269,919.652922 C724.607434,901.260487 729.436119,882.27376 742.852811,868.857068 C765.439238,846.270641 803.811299,848.022869 828.559209,872.770778 C853.307118,897.518687 855.059346,935.890749 832.472919,958.477175 C820.449587,970.500507 803.953073,975.626983 787.419706,974.059184 Z" id="Combined-Shape-Copy-4"></path>
            <path d="M88.4197058,974.059184 C93.1131028,985.343781 95.7042498,997.72247 95.7042498,1010.70635 C95.7042498,1063.44829 52.9484658,1106.20407 0.206533417,1106.20407 C-52.535399,1106.20407 -95.2911829,1063.44829 -95.2911829,1010.70635 C-95.2911829,997.677267 -92.6819626,985.257596 -87.9575429,973.941363 C-104.867658,975.857423 -121.845156,970.774951 -134.142932,958.477175 C-156.729359,935.890749 -154.977131,897.518687 -130.229222,872.770778 C-105.481313,848.022869 -67.1092514,846.270641 -44.5228246,868.857068 C-31.0151359,882.364756 -26.2123433,901.518291 -29.8271917,920.027068 C-20.3831786,916.900784 -10.2859336,915.208638 0.206533417,915.208638 C10.2724553,915.208638 19.9746356,916.766001 29.0852687,919.652922 C25.6074342,901.260487 30.4361188,882.27376 43.8528112,868.857068 C66.439238,846.270641 104.811299,848.022869 129.559209,872.770778 C154.307118,897.518687 156.059346,935.890749 133.472919,958.477175 C121.449587,970.500507 104.953073,975.626983 88.4197058,974.059184 Z" id="Combined-Shape-Copy-7"></path>
            <path d="M1486.41971,974.059184 C1491.1131,985.343781 1493.70425,997.72247 1493.70425,1010.70635 C1493.70425,1063.44829 1450.94847,1106.20407 1398.20653,1106.20407 C1345.4646,1106.20407 1302.70882,1063.44829 1302.70882,1010.70635 C1302.70882,997.677267 1305.31804,985.257596 1310.04246,973.941363 C1293.13234,975.857423 1276.15484,970.774951 1263.85707,958.477175 C1241.27064,935.890749 1243.02287,897.518687 1267.77078,872.770778 C1292.51869,848.022869 1330.89075,846.270641 1353.47718,868.857068 C1366.98486,882.364756 1371.78766,901.518291 1368.17281,920.027068 C1377.61682,916.900784 1387.71407,915.208638 1398.20653,915.208638 C1408.27246,915.208638 1417.97464,916.766001 1427.08527,919.652922 C1423.60743,901.260487 1428.43612,882.27376 1441.85281,868.857068 C1464.43924,846.270641 1502.8113,848.022869 1527.55921,872.770778 C1552.30712,897.518687 1554.05935,935.890749 1531.47292,958.477175 C1519.44959,970.500507 1502.95307,975.626983 1486.41971,974.059184 Z" id="Combined-Shape-Copy-5"></path>
            <path d="M2185.41971,974.059184 C2190.1131,985.343781 2192.70425,997.72247 2192.70425,1010.70635 C2192.70425,1063.44829 2149.94847,1106.20407 2097.20653,1106.20407 C2044.4646,1106.20407 2001.70882,1063.44829 2001.70882,1010.70635 C2001.70882,997.677267 2004.31804,985.257596 2009.04246,973.941363 C1992.13234,975.857423 1975.15484,970.774951 1962.85707,958.477175 C1940.27064,935.890749 1942.02287,897.518687 1966.77078,872.770778 C1991.51869,848.022869 2029.89075,846.270641 2052.47718,868.857068 C2065.98486,882.364756 2070.78766,901.518291 2067.17281,920.027068 C2076.61682,916.900784 2086.71407,915.208638 2097.20653,915.208638 C2107.27246,915.208638 2116.97464,916.766001 2126.08527,919.652922 C2122.60743,901.260487 2127.43612,882.27376 2140.85281,868.857068 C2163.43924,846.270641 2201.8113,848.022869 2226.55921,872.770778 C2251.30712,897.518687 2253.05935,935.890749 2230.47292,958.477175 C2218.44959,970.500507 2201.95307,975.626983 2185.41971,974.059184 Z" id="Combined-Shape-Copy-6"></path>
            <path d="M1137.41971,321.059184 C1142.1131,332.343781 1144.70425,344.72247 1144.70425,357.706354 C1144.70425,410.448286 1101.94847,453.20407 1049.20653,453.20407 C996.464601,453.20407 953.708817,410.448286 953.708817,357.706354 C953.708817,344.677267 956.318037,332.257596 961.042457,320.941363 C944.132342,322.857423 927.154844,317.774951 914.857068,305.477175 C892.270641,282.890749 894.022869,244.518687 918.770778,219.770778 C943.518687,195.022869 981.890749,193.270641 1004.47718,215.857068 C1017.98486,229.364756 1022.78766,248.518291 1019.17281,267.027068 C1028.61682,263.900784 1038.71407,262.208638 1049.20653,262.208638 C1059.27246,262.208638 1068.97464,263.766001 1078.08527,266.652922 C1074.60743,248.260487 1079.43612,229.27376 1092.85281,215.857068 C1115.43924,193.270641 1153.8113,195.022869 1178.55921,219.770778 C1203.30712,244.518687 1205.05935,282.890749 1182.47292,305.477175 C1170.44959,317.500507 1153.95307,322.626983 1137.41971,321.059184 Z" id="Combined-Shape-Copy-2"></path>
            <path d="M1836.41971,321.059184 C1841.1131,332.343781 1843.70425,344.72247 1843.70425,357.706354 C1843.70425,410.448286 1800.94847,453.20407 1748.20653,453.20407 C1695.4646,453.20407 1652.70882,410.448286 1652.70882,357.706354 C1652.70882,344.677267 1655.31804,332.257596 1660.04246,320.941363 C1643.13234,322.857423 1626.15484,317.774951 1613.85707,305.477175 C1591.27064,282.890749 1593.02287,244.518687 1617.77078,219.770778 C1642.51869,195.022869 1680.89075,193.270641 1703.47718,215.857068 C1716.98486,229.364756 1721.78766,248.518291 1718.17281,267.027068 C1727.61682,263.900784 1737.71407,262.208638 1748.20653,262.208638 C1758.27246,262.208638 1767.97464,263.766001 1777.08527,266.652922 C1773.60743,248.260487 1778.43612,229.27376 1791.85281,215.857068 C1814.43924,193.270641 1852.8113,195.022869 1877.55921,219.770778 C1902.30712,244.518687 1904.05935,282.890749 1881.47292,305.477175 C1869.44959,317.500507 1852.95307,322.626983 1836.41971,321.059184 Z" id="Combined-Shape-Copy-3"></path>
        </g>
    </g>
</svg>